<svg width="24" height="24" viewBox="0 0 24 24" fill="none" xmlns="http://www.w3.org/2000/svg">
<path fill-rule="evenodd" clip-rule="evenodd" d="M7.62906 3.56967C7.80845 3.47182 7.99906 3.62235 7.99906 3.82668V17.3825C7.99906 17.6058 7.84665 17.7946 7.64926 17.8988L7.62906 17.9097L5.27906 19.2497C3.63906 20.1897 2.28906 19.4097 2.28906 17.5097V7.77967C2.28906 7.14967 2.73906 6.36967 3.29906 6.04967L7.62906 3.56967ZM14.7219 6.10289C14.8922 6.18724 15 6.36088 15 6.55095V19.7041C15 20.0726 14.615 20.3145 14.283 20.1546L10.033 18.107C9.85998 18.0236 9.75 17.8485 9.75 17.6565V4.44619C9.75 4.07533 10.1396 3.83354 10.4719 3.99813L14.7219 6.10289ZM22 16.2201V6.49006C22 4.59006 20.65 3.81006 19.01 4.75006L17.0021 5.89615C16.8462 5.98513 16.75 6.15087 16.75 6.33038V19.5172C16.75 19.9014 17.1653 20.1421 17.4986 19.951L20.99 17.9501C21.55 17.6301 22 16.8501 22 16.2201Z" fill="#292D32"/>
</svg>
