<svg width="24" height="24" viewBox="0 0 24 24" fill="none" xmlns="http://www.w3.org/2000/svg">
<path fill-rule="evenodd" clip-rule="evenodd" d="M8.54832 2.58897C8.97736 2.578 9.44948 2.65 9.8503 2.84663L9.85488 2.84888L15.1105 5.47167C15.2339 5.53458 15.446 5.58272 15.7006 5.57529C15.9547 5.56787 16.1668 5.50756 16.2889 5.43819L18.637 4.09928C19.598 3.54873 20.6444 3.41154 21.4966 3.90638C22.3488 4.40123 22.75 5.37809 22.75 6.48997V16.22C22.75 16.7061 22.5807 17.1909 22.3491 17.5879C22.1173 17.9852 21.7806 18.3677 21.3672 18.6082L21.3628 18.6108L17.0328 21.0908L17.0307 21.092C16.6399 21.3142 16.17 21.4101 15.7417 21.421C15.3126 21.432 14.8405 21.36 14.4397 21.1633L14.4341 21.1606L9.17953 18.5283C9.05604 18.4654 8.844 18.4172 8.58937 18.4247C8.33529 18.4321 8.12323 18.4924 8.00104 18.5618L5.65294 19.9007C4.69196 20.4513 3.64562 20.5884 2.79338 20.0936C1.94113 19.5987 1.53998 18.6219 1.53998 17.51V7.77997C1.53998 7.30032 1.70586 6.81843 1.93668 6.42162C2.16771 6.02443 2.50583 5.64015 2.92723 5.39916L7.25925 2.918C7.65012 2.69574 8.11996 2.59991 8.54832 2.58897ZM3.67273 6.70078L7.81 4.33117V17C7.81 17.0112 7.81025 17.0224 7.81074 17.0336C7.61769 17.0868 7.43017 17.1608 7.25847 17.2585L4.90847 18.5985L4.90702 18.5993C4.22819 18.9884 3.77912 18.9314 3.54658 18.7964C3.31382 18.6612 3.03998 18.2981 3.03998 17.51V7.77997C3.03998 7.62962 3.09909 7.40651 3.23328 7.17582C3.36713 6.94571 3.53442 6.77982 3.67273 6.70078ZM9.85789 17.1904C9.68506 17.1027 9.49939 17.0393 9.31 16.9965V4.25339L14.4326 6.80981C14.6053 6.89741 14.7908 6.96068 14.98 7.0035V19.7564L9.86042 17.1917L9.85789 17.1904ZM16.48 19.6788L20.6128 17.3117L20.6146 17.3107C20.7508 17.2308 20.9183 17.0638 21.0534 16.8321C21.1893 16.5991 21.25 16.3738 21.25 16.22V6.48997C21.25 5.70185 20.9762 5.33871 20.7434 5.20356C20.5109 5.06854 20.0618 5.01158 19.383 5.40066L19.3815 5.40149L17.0315 6.74149C16.86 6.839 16.6728 6.91295 16.48 6.9662V19.6788Z" fill="#292D32"/>
</svg>
