<svg width="24" height="24" viewBox="0 0 24 24" fill="none" xmlns="http://www.w3.org/2000/svg">
<path fill-rule="evenodd" clip-rule="evenodd" d="M8.35347 3.4345C8.7721 3.18544 9.33581 3.32417 9.60348 3.77013L9.70933 3.95294L9.71018 3.95443C10.2402 4.87816 11.0439 5.50744 12.0012 5.50744C12.958 5.50744 13.764 4.87885 14.2989 3.95605L14.2991 3.95572L14.4065 3.77013C14.6742 3.32417 15.2379 3.18544 15.6565 3.4345L15.6565 3.43459L15.6675 3.44089L17.3975 4.43089L17.3979 4.43113C17.9451 4.74384 18.1336 5.45252 17.8208 5.99438C17.286 6.91737 17.1423 7.92892 17.6202 8.75817C18.0981 9.58746 19.0452 9.96994 20.11 9.96994C20.7384 9.96994 21.26 10.4867 21.26 11.1199V12.8799C21.26 13.5083 20.7432 14.0299 20.11 14.0299C19.0452 14.0299 18.0981 14.4124 17.6202 15.2417C17.1426 16.0704 17.2858 17.0812 17.8198 18.0037C18.1351 18.5577 17.9438 19.2568 17.3979 19.5687L17.3975 19.569L15.6675 20.559L15.6674 20.5589L15.6565 20.5653C15.2379 20.8144 14.6742 20.6757 14.4065 20.2297L14.3007 20.0469L14.2999 20.0456C13.7699 19.1218 12.9662 18.4924 12.0087 18.4924C11.052 18.4924 10.246 19.121 9.71112 20.0438L9.71093 20.0441L9.60348 20.2297C9.33581 20.6757 8.77209 20.8144 8.35347 20.5653L8.35352 20.5653L8.34251 20.559L6.61251 19.569L6.6121 19.5687C6.06491 19.256 5.87642 18.5475 6.18909 18.0056C6.72398 17.0826 6.86773 16.071 6.38982 15.2417C5.91192 14.4124 4.96479 14.0299 3.9 14.0299C3.26678 14.0299 2.75 13.5083 2.75 12.8799V11.1199C2.75 10.4916 3.26676 9.96994 3.9 9.96994C4.96479 9.96994 5.91192 9.58746 6.38982 8.75817C6.86771 7.9289 6.72399 6.91732 6.18916 5.99432C5.87639 5.45246 6.06487 4.74383 6.6121 4.43113L6.61251 4.43089L8.34251 3.44089L8.34256 3.44099L8.35347 3.4345ZM6.18916 5.99432C6.18907 5.99416 6.18897 5.994 6.18888 5.99384L5.54006 6.36991L6.1894 5.99473C6.18932 5.9946 6.18924 5.99446 6.18916 5.99432ZM10.8946 3.00647C10.2226 1.87697 8.75192 1.45649 7.59249 2.14186L5.8679 3.12876L5.86766 3.1289L5.86749 3.12899C4.59518 3.85632 4.16378 5.48719 4.8906 6.74515L4.89112 6.74605C5.26606 7.39291 5.20721 7.80613 5.09018 8.00922C4.97308 8.21242 4.64521 8.46994 3.9 8.46994C2.43324 8.46994 1.25 9.66824 1.25 11.1199V12.8799C1.25 14.3315 2.43322 15.5299 3.9 15.5299C4.64521 15.5299 4.97308 15.7874 5.09018 15.9906C5.20721 16.1937 5.26606 16.6069 4.89112 17.2538L4.8906 17.2547C4.16378 18.5127 4.59518 20.1435 5.86749 20.8709L5.8679 20.8711L7.59257 21.858C8.75199 22.5433 10.2226 22.1228 10.8946 20.9934L10.8946 20.9934L10.8991 20.9857L11.0089 20.796L11.009 20.7958L11.0091 20.7957C11.3841 20.1488 11.773 19.9924 12.0087 19.9924C12.2434 19.9924 12.6293 20.1474 12.9993 20.7929L13.0009 20.7957L13.1109 20.9857L13.1109 20.9857L13.1154 20.9934C13.7874 22.1229 15.258 22.5433 16.4174 21.858L18.1421 20.8711L18.1425 20.8709C19.4157 20.143 19.8444 18.5234 19.1212 17.2578L19.1212 17.2578L19.1189 17.2538C18.7439 16.6069 18.8028 16.1937 18.9198 15.9906C19.0369 15.7874 19.3648 15.5299 20.11 15.5299C21.5768 15.5299 22.76 14.3315 22.76 12.8799V11.1199C22.76 9.6531 21.5616 8.46994 20.11 8.46994C19.3648 8.46994 19.0369 8.21242 18.9198 8.00922C18.8028 7.80613 18.7439 7.39291 19.1189 6.74605L19.1194 6.74515C19.8463 5.48706 19.4147 3.85598 18.1421 3.12876L16.4175 2.14187C15.2581 1.45649 13.7874 1.87696 13.1154 3.00647L13.1154 3.00645L13.1109 3.01416L13.0011 3.20384L13.0011 3.20396L13.0009 3.20416C12.6259 3.85109 12.237 4.00744 12.0012 4.00744C11.7666 4.00744 11.3807 3.8524 11.0107 3.20695L11.0091 3.20417L10.8991 3.01417L10.8991 3.01414L10.8946 3.00647ZM12 8.25001C9.92889 8.25001 8.25 9.92889 8.25 12C8.25 14.0711 9.92889 15.75 12 15.75C14.0711 15.75 15.75 14.0711 15.75 12C15.75 9.92889 14.0711 8.25001 12 8.25001ZM9.75 12C9.75 10.7573 10.7573 9.75001 12 9.75001C13.2427 9.75001 14.25 10.7573 14.25 12C14.25 13.2427 13.2427 14.25 12 14.25C10.7573 14.25 9.75 13.2427 9.75 12Z" fill="#292D32"/>
</svg>
